<?xml version="1.0" encoding="UTF-8" standalone="no"?>
<!-- Created with Inkscape (http://www.inkscape.org/) -->

<svg
   width="81.264664mm"
   height="19.270079mm"
   viewBox="0 0 81.264664 19.270079"
   version="1.1"
   id="svg1"
   xml:space="preserve"
   inkscape:version="1.3.2 (091e20e, 2023-11-25, custom)"
   sodipodi:docname="nunchi-brainstorm.svg"
   xmlns:inkscape="http://www.inkscape.org/namespaces/inkscape"
   xmlns:sodipodi="http://sodipodi.sourceforge.net/DTD/sodipodi-0.dtd"
   xmlns="http://www.w3.org/2000/svg"
   xmlns:svg="http://www.w3.org/2000/svg"><sodipodi:namedview
     id="namedview1"
     pagecolor="#ffffff"
     bordercolor="#000000"
     borderopacity="0.25"
     inkscape:showpageshadow="2"
     inkscape:pageopacity="0.0"
     inkscape:pagecheckerboard="0"
     inkscape:deskcolor="#f2f2f2"
     inkscape:document-units="mm"
     inkscape:zoom="1.5334564"
     inkscape:cx="495.61239"
     inkscape:cy="793.958"
     inkscape:window-width="1920"
     inkscape:window-height="991"
     inkscape:window-x="-9"
     inkscape:window-y="-9"
     inkscape:window-maximized="1"
     inkscape:current-layer="layer1"
     inkscape:export-bgcolor="#ffffff00" /><defs
     id="defs1" /><g
     inkscape:label="Layer 1"
     inkscape:groupmode="layer"
     id="layer1"
     transform="translate(-126.61937,-404.36922)"><g
       id="g121"
       inkscape:export-filename="nunchi-health-title-logo.png"
       inkscape:export-xdpi="96"
       inkscape:export-ydpi="96"
       transform="translate(14.436746,192.273)"><path
         style="fill:#bb3719;fill-opacity:1;stroke:none;stroke-width:0.1;stroke-linecap:round;stroke-miterlimit:2;paint-order:fill markers stroke"
         d="m 176.98229,219.32395 v -6.2138 c 0,0 -0.0808,-0.42711 -0.43288,-0.43288 -0.35207,-0.006 -2.82235,0 -2.82235,0 0,0 -0.42711,-0.075 -0.45019,0.44442 -0.0231,0.51945 0,17.60711 0,17.60711 0,0 -0.0231,0.39247 0.30013,0.41556 0.32321,0.0231 3.33603,0 3.33603,0 0,0 0.23971,-0.058 0.25395,-0.46173 0.11146,-3.15963 -0.17325,-6.02132 0.31534,-7.96153 0.15211,-0.60402 1.19333,-1.76312 2.95403,-1.75578 0.92991,0.004 1.50464,0.39324 1.94771,0.86266 0.84931,0.89983 0.70286,2.83635 0.70286,4.30848 v 4.52637 c 0,0 0.004,0.50315 0.50374,0.50374 0.49955,5.3e-4 2.87371,0 2.87371,0 0,0 0.47002,0.0247 0.49412,-0.38505 0.0153,-0.26072 0.0111,-3.48022 0.006,-5.78775 0.0844,-1.89387 -0.158,-4.03201 -1.12442,-5.33632 -2.40328,-3.24354 -7.64174,-2.0787 -8.85787,-0.3335 z"
         id="path98"
         sodipodi:nodetypes="ccccscscssssccccssscc" /><path
         style="fill:#bb3719;fill-opacity:1;stroke:none;stroke-width:0.1;stroke-linecap:round;stroke-miterlimit:2;paint-order:fill markers stroke"
         d="m 115.89831,219.32395 v -1.1197 c 0,0 -0.0808,-0.42711 -0.43288,-0.43288 -0.35207,-0.006 -2.82235,0 -2.82235,0 0,0 -0.42711,-0.075 -0.45019,0.44442 -0.0231,0.51945 0,12.51301 0,12.51301 0,0 -0.0231,0.39247 0.30013,0.41556 0.32321,0.0231 3.33603,0 3.33603,0 0,0 0.23971,-0.058 0.25395,-0.46173 0.11146,-3.15963 -0.17325,-6.02132 0.31534,-7.96153 0.15211,-0.60402 1.19333,-1.76312 2.95403,-1.75578 0.92991,0.004 1.50464,0.39324 1.94771,0.86266 0.84931,0.89983 0.70286,2.83635 0.70286,4.30848 v 4.52637 c 0,0 0.004,0.50315 0.50374,0.50374 0.49955,5.3e-4 2.87371,0 2.87371,0 0,0 0.47002,0.0247 0.49412,-0.38505 0.0153,-0.26072 0.0111,-3.48022 0.006,-5.78775 0.0844,-1.89387 -0.158,-4.03201 -1.12442,-5.33632 -2.40328,-3.24354 -7.64174,-2.0787 -8.85787,-0.3335 z"
         id="path99"
         sodipodi:nodetypes="ccccscscssssccccssscc" /><path
         style="fill:#bb3719;fill-opacity:1;stroke:none;stroke-width:0.1;stroke-linecap:round;stroke-miterlimit:2;paint-order:fill markers stroke"
         d="m 147.2212,219.32395 v -1.1197 c 0,0 -0.0808,-0.42711 -0.43288,-0.43288 -0.35207,-0.006 -2.82235,0 -2.82235,0 0,0 -0.42711,-0.075 -0.45019,0.44442 -0.0231,0.51945 0,12.51301 0,12.51301 0,0 -0.0231,0.39247 0.30013,0.41556 0.32321,0.0231 3.33603,0 3.33603,0 0,0 0.23971,-0.058 0.25395,-0.46173 0.11146,-3.15963 -0.17325,-6.02132 0.31534,-7.96153 0.15211,-0.60402 1.19333,-1.76312 2.95403,-1.75578 0.92991,0.004 1.50464,0.39324 1.94771,0.86266 0.84931,0.89983 0.70286,2.83635 0.70286,4.30848 v 4.52637 c 0,0 0.004,0.50315 0.50374,0.50374 0.49955,5.3e-4 2.87371,0 2.87371,0 0,0 0.47002,0.0247 0.49412,-0.38505 0.0153,-0.26072 0.0111,-3.48022 0.006,-5.78775 0.0844,-1.89387 -0.158,-4.03201 -1.12442,-5.33632 -2.40328,-3.24354 -7.64174,-2.0787 -8.85787,-0.3335 z"
         id="path100"
         sodipodi:nodetypes="ccccscscssssccccssscc" /><path
         style="fill:#bb3719;fill-opacity:1;stroke:none;stroke-width:0.1;stroke-linecap:round;stroke-miterlimit:2;paint-order:fill markers stroke"
         d="m 137.97199,229.4501 v 1.1197 c 0,0 0.0808,0.42711 0.43288,0.43288 0.35207,0.006 2.82235,0 2.82235,0 0,0 0.42711,0.075 0.45019,-0.44442 0.0231,-0.51945 0,-12.51301 0,-12.51301 0,0 0.0231,-0.39247 -0.30013,-0.41556 -0.32321,-0.0231 -3.33603,0 -3.33603,0 0,0 -0.23971,0.058 -0.25395,0.46173 -0.11146,3.15963 0.17325,6.02132 -0.31534,7.96153 -0.15211,0.60402 -1.19333,1.76312 -2.95403,1.75578 -0.92991,-0.004 -1.50464,-0.39324 -1.94771,-0.86266 -0.84931,-0.89983 -0.70286,-2.83635 -0.70286,-4.30848 v -4.52637 c 0,0 -0.004,-0.50315 -0.50374,-0.50374 -0.49955,-5.3e-4 -2.87371,0 -2.87371,0 0,0 -0.47002,-0.0247 -0.49412,0.38505 -0.0153,0.26072 -0.0111,3.48022 -0.006,5.78775 -0.0844,1.89387 0.158,4.03201 1.12442,5.33632 2.40328,3.24354 7.64174,2.0787 8.85787,0.3335 z"
         id="path119"
         sodipodi:nodetypes="ccccscscssssccccssscc" /><path
         style="fill:#bb3719;fill-opacity:1;stroke:none;stroke-width:0.1;stroke-linecap:round;stroke-miterlimit:2;paint-order:fill markers stroke"
         d="m 190.08859,217.79256 c 0,0 -0.54521,-0.0533 -0.57564,0.4311 -0.0304,0.48434 0,12.49493 0,12.49493 0,0 -0.002,0.35452 0.25239,0.43715 0.25439,0.0826 3.11199,0.0564 3.11199,0.0564 0,0 0.4595,0.004 0.45075,-0.31946 -0.009,-0.32383 0,-12.83731 0,-12.83731 0,0 -0.006,-0.25898 -0.44337,-0.25465 -0.43704,0.004 -2.79612,-0.008 -2.79612,-0.008 z"
         id="path120" /><circle
         style="fill:#bb3719;fill-opacity:1;stroke:none;stroke-width:0.0903646;stroke-linecap:round;stroke-miterlimit:2;paint-order:fill markers stroke"
         id="circle120"
         cx="191.32559"
         cy="214.2179"
         r="2.1216955" /><path
         style="fill:#bb3719;fill-opacity:1;stroke:none;stroke-width:0.1;stroke-linecap:round;stroke-miterlimit:2;stroke-opacity:1;paint-order:fill markers stroke"
         d="m 168.94711,222.60686 3.01398,-1.60015 c 0,0 -1.21655,-3.04685 -4.89908,-3.33181 -3.68253,-0.28496 -5.22811,0.93984 -5.22811,0.93984 0,0 -2.37809,1.14272 -3.07299,3.98408 -0.6949,2.84136 0.20075,4.69442 0.20075,4.69442 0,0 1.34346,3.52081 5.68271,3.99952 4.33925,0.47871 6.28496,-1.467 7.35047,-3.30462 l -2.9894,-1.72593 c 0,0 -0.70127,1.94212 -3.04848,1.95756 -4.64399,0.0305 -4.81521,-7.03491 -0.0756,-7.40753 1.09452,-0.0502 2.16949,0.45088 3.06573,1.79462 z"
         id="path121"
         sodipodi:nodetypes="ccscscsccssc" /></g></g></svg>
