<svg width="214" height="178" viewBox="0 0 214 178" fill="none" xmlns="http://www.w3.org/2000/svg">
<rect x="47.3169" y="2.46432" width="26.9905" height="122.957" rx="4" transform="rotate(-5.71388 47.3169 2.46432)" fill="#C8B9A2"/>
<rect x="126.695" y="42.745" width="26.9905" height="122.957" rx="4" transform="rotate(84.2861 126.695 42.745)" fill="#C8B9A2"/>
<rect x="95.3486" y="6.16486" width="26.9905" height="122.957" rx="4" transform="rotate(39.2861 95.3486 6.16486)" fill="#C8B9A2"/>
<rect x="122.995" y="90.7761" width="26.9905" height="122.957" rx="4" transform="rotate(129.286 122.995 90.7761)" fill="#C8B9A2"/>
<circle cx="67.5373" cy="61.4731" r="47.9831" transform="rotate(-5.71388 67.5373 61.4731)" fill="#C8B9A2"/>
<rect x="180.93" y="57.6186" width="19.9512" height="90.8886" rx="4" transform="rotate(31.8604 180.93 57.6186)" fill="#AA9A81"/>
<rect x="209.278" y="116.997" width="19.9512" height="90.8886" rx="4" transform="rotate(121.86 209.278 116.997)" fill="#AA9A81"/>
<rect x="207.401" y="81.4369" width="19.9512" height="90.8886" rx="4" transform="rotate(76.8604 207.401 81.4369)" fill="#AA9A81"/>
<rect x="185.46" y="143.468" width="19.9512" height="90.8886" rx="4" transform="rotate(166.86 185.46 143.468)" fill="#AA9A81"/>
<circle cx="166.178" cy="101.304" r="35.4687" transform="rotate(31.8604 166.178 101.304)" fill="#AA9A81"/>
<path d="M96.3353 80.1873C85.4079 66.2455 56.7704 66.9991 40.5678 72.6512C24.3651 78.3033 23.9883 160.07 31.9012 164.592C39.8141 169.114 83.746 188.499 105.002 157.433C114.799 143.114 94.8281 103.926 102.364 103.926C109.9 103.926 153.987 91.4915 137.784 91.4915C130.625 91.4915 107.263 94.1292 96.3353 80.1873Z" fill="#BB3719"/>
<circle cx="64.5473" cy="53.0186" r="12.0578" fill="#BB3719"/>
<path d="M160.852 122.852C170.516 120.252 182.039 120.252 182.039 120.252C198.667 121.229 209.916 165.19 202.853 173.36C195.791 181.531 147.1 174.474 141.152 173.36C135.205 172.246 137.436 162.59 130.373 151.82C123.311 141.05 114.391 125.451 116.249 125.08C118.108 124.709 129.258 141.421 139.294 141.05C149.33 140.678 151.188 125.451 160.852 122.852Z" fill="#C2DB8F"/>
<circle cx="170.5" cy="102.752" r="13.5" fill="#C2DB8F"/>
</svg>
