<svg width="214" height="220" viewBox="0 0 214 220" fill="none" xmlns="http://www.w3.org/2000/svg">
<path fill-rule="evenodd" clip-rule="evenodd" d="M198.846 157.136C198.561 155.911 198.261 154.623 197.96 153.258L139.019 193.563L135.985 195.297C135.985 195.297 128.184 201.364 129.484 209.599C130.784 217.833 140.752 212.199 140.752 212.199L200.5 171.611C201.173 167.128 200.167 162.808 198.846 157.136Z" fill="#D3C6B1"/>
<path d="M139.019 193.563L197.96 153.258L107.814 122.92C88.1673 135.777 46.186 162.445 35.4379 166.259C24.6898 170.073 26.4811 182.728 28.0702 187.929C28.0702 187.929 127.317 220 131.651 220C135.985 220 199.694 174.927 199.694 174.927C200.074 173.798 200.337 172.699 200.5 171.611L140.752 212.199C140.752 212.199 130.784 217.833 129.484 209.599C128.184 201.364 135.985 195.297 135.985 195.297L139.019 193.563Z" fill="#6784E8"/>
<path fill-rule="evenodd" clip-rule="evenodd" d="M200.659 145.023L194.091 139.573C188.334 141.924 176.754 146.367 168.588 147.623C162.7 148.529 158.588 147.246 154.889 146.092C151.51 145.038 148.476 144.092 144.751 145.023C136.95 146.973 126.115 166.259 126.115 166.259C126.115 166.259 107.046 156.291 94.4778 158.458C87.1159 159.728 76.78 170.067 67.3896 179.461C60.7486 186.105 54.5805 192.275 50.2718 194.43C49.6431 194.744 31.8712 152.818 21.2361 125.928L13 128.121L43.3375 203.531L116.147 171.893C125.419 172.682 128.669 170.118 133.645 166.191C134.149 165.794 134.67 165.382 135.217 164.959L200.659 145.023Z" fill="#BB3719"/>
<path d="M48.5382 89.9823C39.8703 91.7965 23.4014 105.151 18.2007 118.153C19.1189 120.543 20.1395 123.155 21.2361 125.928C31.8712 152.818 49.6431 194.744 50.2718 194.43C54.5805 192.275 60.7486 186.105 67.3896 179.461C76.78 170.067 87.1159 159.728 94.4778 158.458C107.046 156.291 126.115 166.259 126.115 166.259C126.115 166.259 136.95 146.973 144.751 145.023C148.476 144.092 151.51 145.038 154.889 146.092C158.588 147.246 162.7 148.529 168.588 147.623C176.754 146.367 188.334 141.924 194.091 139.573C196.278 138.68 197.625 138.089 197.625 138.089L140.851 86.0817C140.851 86.0817 122.648 73.9467 109.647 76.5471C96.6447 79.1475 86.2433 95.6164 86.2433 95.6164C73.9639 92.8715 57.206 88.1681 48.5382 89.9823Z" fill="#D3C6B1"/>
<path d="M123.082 161.059L87.9767 98.65M53.3053 169.726C74.5416 140.689 91.4439 140.689 104.012 147.623M29.4688 120.32C49.8382 99.5169 59.8062 95.6163 80.1757 106.018M46.3711 151.091C65.8737 126.821 79.3089 127.687 95.3444 132.455M38.1366 135.488C53.3053 113.385 70.2076 112.888 87.9767 118.153M124.382 138.089C124.382 138.089 128.304 130.672 135.217 126.821C146.943 120.288 165.554 129.854 172.055 129.421M117.447 125.52C117.447 125.52 123.122 118.033 130.016 114.686C139.789 109.94 158.186 116.853 161.653 117.286M110.513 113.385C110.513 113.385 116.012 105.629 123.082 102.984C131.694 99.7619 143.451 102.984 149.518 104.284" stroke="#AC9E89" stroke-width="2" stroke-linecap="round"/>
<circle cx="120.048" cy="40.1422" r="6.50089" fill="#6784E8"/>
<path d="M130.883 47.5098C140.417 43.6093 135.65 26.8515 137.384 27.5738C142.584 29.7407 139.985 54.1187 140.851 57.9112C141.717 61.7038 147.352 87.8153 139.984 96.9166C132.616 106.018 128.716 106.885 115.281 104.718C101.846 102.551 101.412 96.9166 101.412 89.1155C101.412 72.9408 105.313 60.5116 109.647 54.4441C113.98 48.3766 121.348 51.4104 130.883 47.5098Z" fill="#6784E8"/>
<path d="M59.3732 0.270022C49.8383 11.5382 53.7388 27.1404 56.3392 40.5755C58.9395 54.0107 40.737 96.0498 63.2734 105.151C85.8098 114.252 100.212 108.185 105.312 100.817C110.413 93.4494 107.046 34.9414 89.277 32.7745C71.5079 30.6075 69.774 32.7745 63.2734 26.707C56.7728 20.6395 61.9403 -2.76373 59.3732 0.270022Z" fill="#BB3719"/>
<circle cx="80.6092" cy="18.9059" r="7.80106" fill="#BB3719"/>
</svg>
