<svg width="214" height="192" viewBox="0 0 214 192" fill="none" xmlns="http://www.w3.org/2000/svg">
<path d="M78.0811 105.512C69.562 111.324 63.1556 140.502 59.5893 161.231C77.3504 174.674 95.2415 185.367 107.183 192C119.52 184.944 135.517 175.023 151.357 162.988C148.628 139.597 142.112 107.298 126.761 101.15C124.703 100.326 122.671 99.6084 120.662 99.0016C109.994 95.7783 99.9897 95.6758 90.1744 99.2201C86.1222 100.683 82.1022 102.768 78.0811 105.512Z" fill="#C2DB8F"/>
<path d="M116.64 79.8274C116.64 87.5891 110.382 93.8811 102.662 93.8811C94.9426 93.8811 88.6847 87.5891 88.6847 79.8274C88.6847 72.0658 94.9426 65.7737 102.662 65.7737C110.382 65.7737 116.64 72.0658 116.64 79.8274Z" fill="#C2DB8F"/>
<path d="M68.9234 2.28962C39.0405 -2.55647 0 11.0126 0 75.9506C0 108.013 29.6093 138.54 59.5893 161.231C63.1556 140.502 69.562 111.324 78.0811 105.512C82.1022 102.768 86.1222 100.683 90.1744 99.2201C73.4011 76.5191 45.8923 75.8636 39.0406 69.1659C21.6892 52.2045 36.6308 37.1817 50.6081 25.551C61.4362 16.5408 83.566 14.5889 93.5045 24.5817C98.3379 29.4415 103.171 30.8746 106.106 31.2674C102.162 23.0299 91.4107 5.93636 68.9234 2.28962Z" fill="#BB3719"/>
<path d="M72.2973 58.5045C72.2973 66.2662 66.0394 72.5583 58.3198 72.5583C50.6003 72.5583 44.3423 66.2662 44.3423 58.5045C44.3423 50.7429 50.6003 44.4508 58.3198 44.4508C66.0394 44.4508 72.2973 50.7429 72.2973 58.5045Z" fill="#BB3719"/>
<path d="M214 71.589C214 0.351135 174.959 -1.34876 147.486 0.351107C125.52 1.71027 112.489 22.8932 108.148 31.3299C119.477 30.7934 122.37 15.8589 150.86 15.8589C168.551 15.8589 179.558 15.9017 183.635 34.7586C186.045 45.9044 184.117 49.7815 176.887 60.443C169.658 71.1044 160.982 73.043 135.919 84.1891C129.952 86.8428 124.716 92.9002 120.662 99.0016C122.671 99.6084 124.703 100.326 126.761 101.15C142.112 107.298 148.628 139.597 151.357 162.988C182.99 138.955 214 106.494 214 71.589Z" fill="#6784E8"/>
<path d="M163.874 59.4737C163.874 67.2354 157.616 73.5275 149.896 73.5275C142.177 73.5275 135.919 67.2354 135.919 59.4737C135.919 51.7121 142.177 45.42 149.896 45.42C157.616 45.42 163.874 51.7121 163.874 59.4737Z" fill="#6784E8"/>
</svg>
